PathFileType	4	(X/Y/Z)	C:/Users/beibeiliu/ov580/test_trc/User1\sequence.38_training_dense_left.trc
DataRate	CameraRate	NumFrames	NumMarkers	Units	OrigDataRate	OrigDataStartFrame	OrigNumFrames
120	120	13	19	mm	120	438	500
Frame#	Time	ThumbCMC			ThumbMCP			ThumbIP			ThumbTip			IndexMCP			IndexPIP			IndexTip			MiddleMCP			MiddlePIP			MiddleTip			RingMCP			RingPIP			RingTip			PinkyMCP			PinkyPIP			PinkyTip			BackHand1			BackHand2			BackHand3	
		X0	Y0	Z0	X1	Y1	Z1	X2	Y2	Z2	X3	Y3	Z3	X4	Y4	Z4	X5	Y5	Z5	X6	Y6	Z6	X7	Y7	Z7	X8	Y8	Z8	X9	Y9	Z9	X10	Y10	Z10	X11	Y11	Z11	X12	Y12	Z12	X13	Y13	Z13	X14	Y14	Z14	X15	Y15	Z15	X16	Y16	Z16	X17	Y17	Z17	X18	Y18	Z18	
437	3.64167	-78.1512	-56.3075	60.6536	-70.6096	-78.1111	34.3247	-68.9212	-81.1209	3.41268	-69.4856	-89.8212	-21.5058	-61.8885	-23.6241	-11.7406	-59.942	-30.9536	-43.0161	-63.1639	-52.8399	-66.0161	-90.6655	-23.0966	-27.7554	-84.7531	-46.846	-52.045	-93.0239	-86.605	-49.0325	-116.536	-17.4294	-23.0489	-113.125	-29.836	-55.982	-111.993	-53.4572	-73.3629	-144.102	-22.8224	-6.74394	-152.767	-20.0628	-31.9045	-152.149	-16.0347	-53.1666	-126.05	-11.9107	32.177	-133.839	-15.5255	69.0491	-90.9663	-18.6261	57.7474	
438	3.65	-79.6225	-56.0844	62.9437	-70.9662	-76.6035	33.0311	-66.0958	-83.6604	4.08129	-71.695	-88.656	-19.056	-64.6426	-23.5416	-14.9395	-57.5143	-30.5588	-41.4793	-66.1997	-50.5387	-65.186	-89.2499	-22.8386	-29.8482	-86.9878	-50.7821	-51.6695	-94.3781	-82.7361	-45.4094	-111.155	-16.3351	-24.4816	-113.578	-26.9725	-54.889	-111.507	-50.59	-70.3161	-145.503	-21.3625	-6.91174	-149.806	-18.128	-32.8642	-151.834	-13.2074	-56.5626	-121.669	-11.3759	36.9897	-128.216	-14.883	65.5651	-95.9901	-16.504	57.5413	
439	3.65833	-74.9688	-58.0151	60.4336	-71.7353	-77.9507	32.689	-68.1858	-84.3601	4.10702	-72.8487	-89.6761	-19.676	-65.2186	-23.6589	-13.2651	-57.2255	-33.514	-44.4682	-64.6073	-54.1077	-66.207	-86.2547	-22.9342	-26.5347	-85.4818	-48.105	-49.7077	-97.8271	-85.5325	-39.6623	-112.22	-15.3863	-22.8766	-109.88	-29.0199	-54.609	-110.451	-54.1802	-72.099	-145.502	-18.7215	-9.10139	-149.203	-16.201	-29.4732	-155.276	-11.5145	-54.37	-119.925	-10.5489	34.967	-128.38	-15.5558	69.5548	-93.6935	-16.1909	54.6482	
440	3.66667	-78.8702	-57.7703	60.5321	-71.9006	-78.7542	29.008	-71.452	-82.6734	0.00459153	-72.2466	-93.7568	-24.8753	-62.9922	-25.1416	-16.781	-57.7199	-34.4315	-44.2346	-62.2084	-54.8773	-63.9095	-86.6605	-24.7155	-27.5368	-87.8701	-54.1221	-49.7662	-99.1305	-86.6844	-34.4968	-114.118	-17.0381	-29.4409	-111.789	-31.6268	-55.6219	-108.744	-55.3735	-68.5894	-144.054	-19.5593	-11.081	-150.738	-17.0307	-28.6149	-153.58	-12.2342	-57.214	-124.123	-10.7105	33.7356	-128.571	-12.4342	66.0774	-93.5771	-16.6286	54.2234	
441	3.675	-74.9962	-59.0062	59.7333	-71.6424	-80.1877	27.133	-68.9112	-88.9996	-0.810409	-75.8166	-94.3816	-23.1814	-60.6245	-28.1935	-14.2909	-60.3825	-39.2998	-47.6656	-62.6756	-57.9746	-63.7594	-86.9861	-29.094	-31.8752	-89.6977	-55.3846	-48.4498	-98.6431	-88.7339	-31.2438	-114.708	-18.9397	-25.2165	-109.606	-34.2576	-53.7243	-111.512	-60.2245	-67.039	-143.679	-21.7706	-7.87136	-153.759	-19.111	-33.5702	-155.041	-14.1675	-57.4396	-119.319	-12.8425	34.9074	-129.746	-13.0127	67.8968	-93.5568	-19.0424	56.6365	
442	3.68333	-74.7756	-60.431	59.7025	-72.5508	-85.3687	30.595	-73.8716	-88.2449	2.21315	-77.7057	-97.3782	-26.5206	-61.9413	-29.5085	-19.9557	-61.5919	-40.5268	-46.5375	-66.8448	-63.4322	-67.8927	-88.3256	-30.2498	-28.1776	-92.5595	-58.6298	-48.3983	-101.574	-92.559	-23.729	-113.818	-22.3394	-28.3195	-115.692	-41.1966	-57.7605	-116.234	-70.4865	-67.1255	-148.575	-22.3099	-12.304	-153.365	-20.6812	-30.7083	-157.751	-17.0328	-57.0099	-121.749	-12.1828	30.9928	-129.782	-13.8822	65.7625	-93.1289	-18.1642	54.9713	
443	3.69167	-79.2038	-61.0822	60.3621	-73.3856	-84.4141	26.4445	-74.081	-91.6068	-1.01389	-80.7791	-100.619	-23.0476	-64.6417	-31.4446	-20.8099	-64.9001	-42.9131	-48.0563	-71.8349	-63.4152	-65.7206	-94.531	-32.8209	-31.5731	-97.1743	-62.3172	-47.518	-102.384	-93.387	-24.5909	-117.643	-25.3766	-31.0858	-115.276	-41.382	-53.7432	-117.036	-70.9213	-64.2966	-145.695	-23.607	-10.0614	-150.815	-21.8914	-32.1964	-158.717	-18.352	-54.3511	-123.381	-10.7768	30.2772	-132.63	-14.8194	67.4198	-91.4449	-19.9858	53.1176	
444	3.7	-79.6067	-60.5297	56.969	-76.6622	-84.1246	27.1899	-78.1518	-92.8722	2.48002	-84.2226	-101.711	-20.5596	-67.2165	-34.7154	-20.9222	-64.1076	-45.4254	-45.2888	-69.4524	-71.855	-68.0991	-92.8597	-36.0331	-30.9948	-98.3882	-66.4888	-45.7754	-108.71	-94.9003	-20.9788	-119.021	-27.0127	-29.2532	-119.805	-48.2472	-57.5374	-122.421	-72.8705	-63.8601	-150.948	-24.7105	-10.013	-156.903	-23.4709	-33.1967	-158.188	-19.1341	-54.8281	-122.788	-12.5538	30.2308	-131.164	-13.9785	65.2605	-95.3302	-20.9353	55.2426	
445	3.70833	-80.012	-62.6927	60.4103	-77.1267	-89.0043	31.9028	-77.3646	-96.6095	-1.94536	-85.3121	-103.563	-21.5626	-67.5845	-37.3587	-20.6716	-67.974	-49.8325	-48.8458	-75.6091	-73.6941	-66.6337	-97.4529	-36.4716	-31.3251	-98.4191	-67.7906	-47.0143	-109.869	-96.1645	-24.0252	-116.107	-28.3173	-28.7604	-121.832	-45.0544	-53.81	-122.927	-72.2943	-64.6961	-146.127	-24.7445	-9.08989	-154.637	-25.0947	-28.6061	-159.583	-20.6348	-53.4797	-123.528	-13.0104	32.6679	-129.061	-15.9687	65.9799	-92.733	-20.9942	53.3333	
446	3.71667	-80.5964	-64.3387	60.8131	-77.5368	-89.4348	27.5835	-77.6718	-99.4086	4.67493	-85.7604	-105.916	-17.6807	-66.4215	-39.8194	-17.5274	-65.7808	-55.4512	-48.6149	-76.2438	-78.4181	-66.8671	-98.2018	-38.7017	-32.5105	-101.302	-67.0648	-48.6804	-110.315	-101.446	-27.9254	-118.375	-30.3347	-28.542	-120.98	-47.2848	-53.9449	-123.895	-76.6082	-68.1094	-151.007	-25.3075	-12.0152	-156.381	-25.5546	-31.5316	-164.275	-21.3699	-56.7143	-125.958	-13.942	32.5392	-128.647	-14.5331	67.1644	-95.1359	-23.1937	54.0374	
447	3.725	-79.4316	-66.5998	61.11	-78.6076	-92.4893	33.1466	-80.9961	-100.145	7.227	-86.0531	-109.056	-20.8558	-70.5643	-42.0421	-21.2926	-67.0851	-57.9466	-46.7411	-79.0881	-82.6076	-66.2706	-95.3064	-39.4192	-30.813	-102.163	-66.0069	-50.7072	-113.257	-100.867	-41.1383	-118.249	-31.6355	-26.9628	-125.036	-49.2986	-57.1112	-127.652	-75.7411	-69.6093	-147.691	-27.6535	-10.2243	-158.14	-26.43	-30.9262	-160.971	-23.7063	-56.398	-125.363	-16.4681	28.5626	-129.833	-16.2548	64.6359	-91.8531	-25.4225	52.4753	
448	3.73333	-83.36	-65.3326	59.6812	-82.0798	-91.4243	34.6835	-77.711	-102.203	4.00139	-81.7641	-114.144	-18.4745	-69.2734	-45.3873	-19.2227	-72.3949	-58.4979	-47.7872	-79.6883	-86.2668	-63.3591	-99.0732	-39.1686	-31.3713	-100.686	-67.2232	-54.1257	-109.69	-101.839	-54.7498	-123.81	-31.8017	-31.0176	-125.101	-48.9118	-57.942	-125.483	-70.0412	-69.6681	-151.657	-26.9609	-11.4691	-157.236	-27.4771	-27.7409	-164.305	-22.7181	-56.3219	-123.434	-17.7894	29.9739	-132.058	-16.9363	63.1025	-91.0703	-26.118	50.7359	
449	3.74167	-80.1378	-67.7586	58.6257	-80.8777	-90.0298	31.0734	-78.5823	-102.539	4.50831	-82.3711	-113.335	-15.0615	-69.7922	-47.7664	-19.9728	-74.5186	-64.7147	-49.6636	-86.7235	-88.1635	-62.5018	-98.0911	-41.1037	-33.7483	-99.6024	-62.8089	-56.1663	-109.105	-94.0401	-66.3818	-121.142	-33.1916	-31.4172	-122.322	-45.1999	-54.0124	-126.107	-68.2635	-74.7565	-151.567	-29.3328	-7.58801	-158.195	-28.6222	-27.7231	-164.777	-21.7981	-53.8877	-121.463	-17.5042	30.7337	-129.466	-16.3589	64.1926	-94.2665	-24.8949	52.452	
